<svg width="75" height="74" viewBox="0 0 75 74" fill="none" xmlns="http://www.w3.org/2000/svg">
<rect width="74" height="74" transform="translate(0.666504)" fill="none"/>
<path d="M71.1235 37.7658C70.8671 37.3111 70.5236 36.9125 70.113 36.5931C69.7024 36.2737 69.2328 36.0399 68.7318 35.9054C66.4589 35.3192 64.1045 35.1226 61.767 35.324C63.1127 29.3273 62.2338 24.5949 61.3492 21.8364C61.0405 20.8618 60.3831 20.0382 59.5051 19.5261C58.6272 19.0139 57.5916 18.85 56.6004 19.0661C53.5235 19.7623 50.6107 21.0567 48.0248 22.877C46.2252 18.9278 43.5043 15.4769 40.0947 12.8194C39.3951 12.2876 38.543 12 37.667 12C36.7911 12 35.9389 12.2876 35.2393 12.8194C31.8316 15.478 29.1119 18.9287 27.3121 22.877C24.7255 21.056 21.8116 19.7616 18.7337 19.0661C17.7424 18.8502 16.707 19.0147 15.8294 19.5275C14.9519 20.0402 14.2953 20.8644 13.9877 21.8393C13.1031 24.5978 12.2242 29.3302 13.5699 35.3269C11.2324 35.1255 8.87802 35.3221 6.60516 35.9083C6.10408 36.0428 5.63455 36.2766 5.22393 36.596C4.81331 36.9154 4.46981 37.314 4.21346 37.7687C3.94404 38.2359 3.76961 38.7527 3.70035 39.2887C3.63108 39.8247 3.66837 40.3693 3.81004 40.8906C4.76384 44.4602 7.70015 51.2447 16.61 56.6253C25.5198 62.0058 33.4297 62 37.6685 62C41.9072 62 49.8056 62 58.7212 56.6253C67.6368 51.2505 70.5673 44.4602 71.5211 40.8877C71.6636 40.3668 71.7019 39.8224 71.6336 39.2864C71.5653 38.7504 71.3919 38.2334 71.1235 37.7658ZM49.333 26.2169C51.7055 24.4123 54.4297 23.1343 57.3265 22.4671C57.4804 22.4355 57.6404 22.4625 57.7756 22.5431C57.9109 22.6236 58.0116 22.7519 58.0584 22.9032C59.1938 26.4553 60.3089 33.8038 55.0068 43.1056C52.8785 46.7746 50.1506 50.0541 46.9385 52.8057C49.1515 48.9193 50.9237 43.6666 50.9237 36.76C50.9506 33.1828 50.4137 29.6241 49.333 26.2169ZM17.2785 22.9119C17.3236 22.759 17.4236 22.6287 17.559 22.5464C17.6944 22.4642 17.8554 22.4359 18.0104 22.4671C20.9073 23.1343 23.6314 24.4123 26.0039 26.2169C24.9232 29.6241 24.3863 33.1828 24.4132 36.76C24.4132 43.6666 26.1854 48.9251 28.3927 52.797C25.1799 50.0461 22.4519 46.7664 20.3243 43.0969C15.028 33.8038 16.1431 26.4553 17.2785 22.9119ZM18.385 53.6283C10.5183 48.8873 7.96814 43.0417 7.14689 39.9662C7.12536 39.8881 7.11962 39.8064 7.13001 39.726C7.14041 39.6456 7.16673 39.5682 7.20741 39.4982C7.26997 39.386 7.37328 39.3026 7.49556 39.2657C9.8244 38.6819 12.2458 38.5762 14.6159 38.9547C15.347 40.9969 16.2564 42.9697 17.3332 44.8497C20.2896 49.9963 24.3211 54.4321 29.1477 57.849C25.3426 57.0894 21.6996 55.6607 18.385 53.6283ZM37.6685 58.1804C35.1673 56.3782 27.8711 49.9832 27.8711 36.76C27.8711 24.156 34.4814 17.7668 37.3227 15.6041C37.4224 15.5286 37.5438 15.4878 37.6685 15.4878C37.7932 15.4878 37.9145 15.5286 38.0142 15.6041C40.8555 17.7668 47.4658 24.156 47.4658 36.76C47.4658 50.0646 40.2071 56.3811 37.6685 58.1804ZM68.1842 39.9779C67.363 43.0417 64.8128 48.8873 56.9461 53.64C53.6279 55.6682 49.982 57.092 46.1748 57.8461C51.0014 54.4292 55.0329 49.9934 57.9893 44.8468C59.0709 42.9682 59.9851 40.9964 60.721 38.9547C63.0938 38.5792 65.5172 38.6889 67.8471 39.2773C67.9694 39.3143 68.0727 39.3976 68.1353 39.5099C68.175 39.5802 68.2003 39.6579 68.2097 39.7383C68.2191 39.8187 68.2124 39.9001 68.19 39.9779H68.1842Z" fill="#182757"/>
</svg>
